<svg width="17" height="16" viewBox="0 0 17 16" fill="none" xmlns="http://www.w3.org/2000/svg">
<path d="M16.3104 7.78651C16.5632 7.81654 16.5632 8.18346 16.3104 8.21349L14.189 8.4652C11.4498 8.79021 9.29021 10.9499 8.96519 13.689L8.71349 15.8103C8.68346 16.0632 8.31654 16.0632 8.28651 15.8103L8.0348 13.689C7.70979 10.9499 5.55015 8.79021 2.81099 8.46519L0.689672 8.21349C0.436776 8.18346 0.436776 7.81654 0.689672 7.78651L2.81099 7.53481C5.55015 7.20979 7.70979 5.05015 8.0348 2.31096L8.28651 0.189649C8.31654 -0.0632168 8.68346 -0.0632168 8.71349 0.189649L8.96519 2.31096C9.29021 5.05015 11.4498 7.20979 14.189 7.53481L16.3104 7.78651Z" fill="#38F838"/>
</svg>
