<svg width="20" height="20" viewBox="0 0 20 20" fill="none" xmlns="http://www.w3.org/2000/svg">
<path fill-rule="evenodd" clip-rule="evenodd" d="M3.15222 5.8518C2.16343 6.85903 1.40027 8.08847 0.944441 9.45811H0.945275C0.845065 9.75916 0.845065 10.0846 0.945275 10.3856C2.18611 14.1081 5.69944 16.7939 9.84111 16.7939C11.0996 16.7939 12.3002 16.5459 13.3966 16.0961L11.3326 14.0322C10.8591 14.2038 10.3552 14.2939 9.84194 14.2939C8.68162 14.2939 7.56882 13.833 6.74835 13.0125C5.92788 12.1921 5.46694 11.0793 5.46694 9.91895C5.46694 9.4057 5.55713 8.90175 5.72872 8.42829L3.15222 5.8518ZM8.46576 5.76602L6.39712 3.69738C7.46362 3.27568 8.62605 3.04395 9.84278 3.04395C13.9844 3.04395 17.4969 5.72978 18.7386 9.45228C18.8386 9.75394 18.8386 10.0789 18.7386 10.3798C18.2948 11.7141 17.5592 12.9153 16.6074 13.9076L13.9949 11.2951C14.1406 10.8553 14.2169 10.391 14.2169 9.91895C14.2169 8.75862 13.756 7.64582 12.9355 6.82535C12.1151 6.00488 11.0023 5.54395 9.84194 5.54395C9.36985 5.54395 8.90563 5.62025 8.46576 5.76602ZM7.3458 10.0454C7.37702 10.6624 7.63588 11.2478 8.07484 11.6867C8.51379 12.1257 9.09917 12.3845 9.71618 12.4157L7.3458 10.0454ZM12.3253 9.6256L10.136 7.43621C10.691 7.50177 11.2112 7.75201 11.6104 8.15118C12.0095 8.55034 12.2598 9.07059 12.3253 9.6256Z" fill="#7B7B7B"/>
<path d="M3.45524 2.6084L2.6084 3.45524L16.5442 17.391L17.391 16.5442L3.45524 2.6084Z" fill="#7B7B7B"/>
</svg>
