<svg width="32" height="32" viewBox="0 0 32 32" fill="none" xmlns="http://www.w3.org/2000/svg">
<path d="M16 13.3125C16 11.9035 15.4205 10.5523 14.3891 9.556C13.3576 8.55971 11.9587 8 10.5 8C9.04131 8 7.64236 8.55971 6.61091 9.556C5.57946 10.5523 5 11.9035 5 13.3125C5 14.681 5.19989 16.6931 7.2 18.625L16 25C16 25 22.7999 20.5569 24.8 18.625C26.8001 16.6931 27 14.681 27 13.3125C27 11.9035 26.4205 10.5523 25.3891 9.556C24.3576 8.55971 22.9587 8 21.5 8C20.0413 8 18.6424 8.55971 17.6109 9.556C16.5795 10.5523 16 11.9035 16 13.3125Z" fill="black"/>
</svg>
