<svg width="32" height="32" viewBox="0 0 32 32" fill="none" xmlns="http://www.w3.org/2000/svg">
<path fill-rule="evenodd" clip-rule="evenodd" d="M16 6C15.7452 5.99997 15.4933 6.05595 15.2615 6.16417C15.0297 6.27239 14.8234 6.4303 14.6565 6.62722C14.4896 6.82413 14.366 7.05544 14.2941 7.30547C14.2223 7.5555 14.2038 7.8184 14.24 8.07636C12.9517 8.46539 11.8209 9.2702 11.0167 10.3706C10.2125 11.471 9.77785 12.808 9.77778 14.1818V21.4545H8.88889C8.65314 21.4545 8.42705 21.5503 8.26035 21.7208C8.09365 21.8913 8 22.1225 8 22.3636C8 22.6047 8.09365 22.836 8.26035 23.0065C8.42705 23.1769 8.65314 23.2727 8.88889 23.2727H23.1111C23.3469 23.2727 23.573 23.1769 23.7397 23.0065C23.9064 22.836 24 22.6047 24 22.3636C24 22.1225 23.9064 21.8913 23.7397 21.7208C23.573 21.5503 23.3469 21.4545 23.1111 21.4545H22.2222V14.1818C22.2222 12.808 21.7875 11.471 20.9833 10.3706C20.1791 9.2702 19.0483 8.46539 17.76 8.07636C17.7962 7.8184 17.7777 7.5555 17.7059 7.30547C17.634 7.05544 17.5104 6.82413 17.3435 6.62722C17.1766 6.4303 16.9703 6.27239 16.7385 6.16417C16.5067 6.05595 16.2548 5.99997 16 6ZM17.7778 25.0909C17.7778 25.332 17.6841 25.5632 17.5174 25.7337C17.3507 25.9042 17.1246 26 16.8889 26H15.1111C14.8754 26 14.6493 25.9042 14.4826 25.7337C14.3159 25.5632 14.2222 25.332 14.2222 25.0909C14.2222 24.8498 14.3159 24.6186 14.4826 24.4481C14.6493 24.2776 14.8754 24.1818 15.1111 24.1818H16.8889C17.1246 24.1818 17.3507 24.2776 17.5174 24.4481C17.6841 24.6186 17.7778 24.8498 17.7778 25.0909Z" fill="black"/>
</svg>
