<svg width="20" height="20" viewBox="0 0 20 20" fill="none" xmlns="http://www.w3.org/2000/svg">
<path d="M10 12.5C10.663 12.5 11.2989 12.2366 11.7678 11.7678C12.2366 11.2989 12.5 10.663 12.5 10C12.5 9.33696 12.2366 8.70107 11.7678 8.23223C11.2989 7.76339 10.663 7.5 10 7.5C9.33696 7.5 8.70107 7.76339 8.23223 8.23223C7.76339 8.70107 7.5 9.33696 7.5 10C7.5 10.663 7.76339 11.2989 8.23223 11.7678C8.70107 12.2366 9.33696 12.5 10 12.5Z" fill="#1A1A1A"/>
<path fill-rule="evenodd" clip-rule="evenodd" d="M1.10167 9.53917C2.34167 5.81333 5.85583 3.125 10 3.125C14.1417 3.125 17.6542 5.81083 18.8958 9.53333C18.9958 9.835 18.9958 10.16 18.8958 10.4608C17.6567 14.1867 14.1417 16.875 9.99833 16.875C5.85667 16.875 2.34333 14.1892 1.1025 10.4667C1.00229 10.1656 1.00229 9.84021 1.1025 9.53917H1.10167ZM14.3742 10C14.3742 11.1603 13.9132 12.2731 13.0928 13.0936C12.2723 13.9141 11.1595 14.375 9.99917 14.375C8.83885 14.375 7.72605 13.9141 6.90558 13.0936C6.0851 12.2731 5.62417 11.1603 5.62417 10C5.62417 8.83968 6.0851 7.72688 6.90558 6.90641C7.72605 6.08594 8.83885 5.625 9.99917 5.625C11.1595 5.625 12.2723 6.08594 13.0928 6.90641C13.9132 7.72688 14.3742 8.83968 14.3742 10Z" fill="#1A1A1A"/>
</svg>
