<svg width="32" height="32" viewBox="0 0 32 32" fill="none" xmlns="http://www.w3.org/2000/svg">
<path fill-rule="evenodd" clip-rule="evenodd" d="M6.5255 8.56736C5.5 9.6335 5.5 11.3517 5.5 14.7857V17.2143C5.5 20.6483 5.5 22.3665 6.5255 23.4326C7.54983 24.5 9.20067 24.5 12.5 24.5H19.5C22.7993 24.5 24.4502 24.5 25.4745 23.4326C26.5 22.3665 26.5 20.6483 26.5 17.2143V14.7857C26.5 11.3517 26.5 9.6335 25.4745 8.56736C24.4502 7.5 22.7993 7.5 19.5 7.5H12.5C9.20067 7.5 7.54983 7.5 6.5255 8.56736ZM9.6475 11.3469C9.39006 11.1681 9.07495 11.1031 8.77149 11.1662C8.46802 11.2293 8.20106 11.4153 8.02933 11.6832C7.85761 11.9512 7.79518 12.2791 7.85578 12.595C7.91639 12.9108 8.09506 13.1887 8.3525 13.3674L14.7062 17.7753C15.0894 18.041 15.5395 18.1828 16 18.1828C16.4605 18.1828 16.9106 18.041 17.2938 17.7753L23.6475 13.3674C23.9049 13.1887 24.0836 12.9108 24.1442 12.595C24.2048 12.2791 24.1424 11.9512 23.9707 11.6832C23.7989 11.4153 23.532 11.2293 23.2285 11.1662C22.925 11.1031 22.6099 11.1681 22.3525 11.3469L16 15.7547L9.6475 11.3469Z" fill="black"/>
</svg>
