<svg width="24" height="27" viewBox="0 0 24 27" fill="none" xmlns="http://www.w3.org/2000/svg">
<g id="icon">
<g id="evaArrowUpFill0">
<g id="evaArrowUpFill1">
<path id="evaArrowUpFill2" d="M16.4198 9.00001H8.32461C8.00502 8.99947 7.69183 9.10485 7.4213 9.30394C7.15077 9.50304 6.93395 9.78771 6.79595 10.125C6.6344 10.5252 6.57217 10.9705 6.61637 11.4101C6.66056 11.8496 6.8094 12.2659 7.04592 12.6113L11.0935 18.3488C11.2524 18.5632 11.4487 18.7352 11.6694 18.8531C11.89 18.971 12.1297 19.032 12.3722 19.032C12.6147 19.032 12.8544 18.971 13.0751 18.8531C13.2957 18.7352 13.4921 18.5632 13.6509 18.3488L17.6985 12.6113C17.935 12.2659 18.0839 11.8496 18.1281 11.4101C18.1722 10.9705 18.11 10.5252 17.9485 10.125C17.8105 9.78771 17.5936 9.50304 17.3231 9.30394C17.0526 9.10485 16.7394 8.99947 16.4198 9.00001Z" fill="black"/>
</g>
</g>
</g>
</svg>
