<svg width="12" height="13" viewBox="0 0 12 13" fill="#7b7b7b" xmlns="http://www.w3.org/2000/svg">
<path d="M4.71486 0.363647C7.3188 0.363647 9.42971 2.52187 9.42971 5.18418C9.42971 6.27828 9.0732 7.28725 8.47248 8.09628L11.812 11.5145C12.0629 11.7714 12.0627 12.1876 11.8114 12.4441C11.5602 12.7007 11.1531 12.7004 10.9022 12.4436L7.56312 9.02601C6.77183 9.64021 5.78498 10.0047 4.71486 10.0047C2.11091 10.0047 0 7.84648 0 5.18418C0 2.52187 2.11091 0.363647 4.71486 0.363647ZM4.71486 1.67827C2.82108 1.67827 1.28586 3.2479 1.28586 5.18418C1.28586 7.12045 2.82108 8.69009 4.71486 8.69009C6.60863 8.69009 8.14386 7.12045 8.14386 5.18418C8.14386 3.2479 6.60863 1.67827 4.71486 1.67827Z" />
</svg>
