<svg width="22" height="17" viewBox="0 0 22 17" fill="none" xmlns="http://www.w3.org/2000/svg">
<path d="M11 5.3125C11 3.90354 10.4205 2.55228 9.38909 1.556C8.35764 0.559708 6.95869 0 5.5 0C4.04131 0 2.64236 0.559708 1.61091 1.556C0.579463 2.55228 0 3.90354 0 5.3125C0 6.681 0.199886 8.69307 2.2 10.625L11 17C11 17 17.7999 12.5569 19.8 10.625C21.8001 8.69307 22 6.681 22 5.3125C22 3.90354 21.4205 2.55228 20.3891 1.556C19.3576 0.559708 17.9587 0 16.5 0C15.0413 0 13.6424 0.559708 12.6109 1.556C11.5795 2.55228 11 3.90354 11 5.3125Z" />
</svg>
